<svg xmlns="http://www.w3.org/2000/svg" width="237" height="55" fill="none" viewBox="0 0 237 55"><path fill="#DD9208" d="M29.543 42.416L0.743 26.608L29.543 10.8V15.216L8.039 26.608L29.543 38V42.416ZM187.843 54.96L199.683 1.136H203.843L192.003 54.96H187.843ZM236.293 26.608L207.493 42.416V38L228.997 26.608L207.493 15.216V10.8L236.293 26.608Z"/><path fill="#000" d="M47.427 42.416C50.627 42.416 53.1017 41.328 54.851 39.152C56.6003 36.976 57.475 34.352 57.475 31.28C57.475 28.208 56.707 25.7547 55.171 23.92C53.635 22.0427 51.651 21.104 49.219 21.104C46.8297 21.104 44.2697 21.8293 41.539 23.28V41.264C43.5443 42.032 45.507 42.416 47.427 42.416ZM41.539 0.0479965V19.184C44.7817 17.3493 48.0457 16.432 51.331 16.432C54.659 16.432 57.4323 17.776 59.651 20.464C61.8697 23.1093 62.979 26.5867 62.979 30.896C62.979 35.2053 61.6777 38.9387 59.075 42.096C56.515 45.2107 52.8457 46.768 48.067 46.768C44.3977 46.768 40.4723 45.8293 36.291 43.952V0.0479965H41.539ZM70.1705 16.816H73.6265L75.2265 21.936H75.4825C77.8292 18.9067 81.0505 17.072 85.1465 16.432L85.7225 21.488C83.7172 21.616 81.7758 22.128 79.8985 23.024C78.0212 23.92 76.5918 25.1147 75.6105 26.608V46H70.1705V16.816ZM95.542 16.816V38.512C95.542 39.7067 95.9687 40.6453 96.822 41.328C97.718 41.968 98.87 42.288 100.278 42.288C103.307 42.288 106.422 41.0933 109.622 38.704V16.816H115.062V46H111.606L110.006 42.16C106.721 45.232 103.073 46.768 99.062 46.768C96.502 46.768 94.3687 46.0853 92.662 44.72C90.9553 43.3547 90.102 41.3707 90.102 38.768V16.816H95.542ZM149.384 23.92V46H143.944V24.176C143.944 23.0667 143.496 22.2133 142.6 21.616C141.746 21.0187 140.594 20.72 139.144 20.72C136.114 20.72 132.978 21.808 129.736 23.984V46H124.296V16.816H127.752L129.352 20.144C132.637 17.4133 136.2 16.048 140.04 16.048C142.898 16.048 145.16 16.7733 146.824 18.224C148.53 19.6747 149.384 21.5733 149.384 23.92ZM170.326 20.208C168.705 20.208 167.297 20.5707 166.102 21.296C164.95 22.0213 164.097 22.96 163.542 24.112C162.518 26.288 162.006 28.6133 162.006 31.088C162.006 38.768 164.673 42.608 170.006 42.608C171.627 42.608 173.014 42.2453 174.166 41.52C175.318 40.7947 176.193 39.856 176.79 38.704C177.814 36.5707 178.326 34.2453 178.326 31.728C178.326 24.048 175.659 20.208 170.326 20.208ZM170.326 16.048C175.062 16.048 178.518 17.52 180.694 20.464C182.87 23.408 183.958 27.248 183.958 31.984C183.958 35.3973 183.062 38.5547 181.27 41.456C180.289 43.0347 178.817 44.3147 176.854 45.296C174.891 46.2773 172.545 46.768 169.814 46.768C165.121 46.768 161.707 45.36 159.574 42.544C157.441 39.728 156.374 35.952 156.374 31.216C156.374 28.4427 156.801 26.096 157.654 24.176C158.55 22.256 159.489 20.784 160.47 19.76C161.451 18.6933 162.795 17.8187 164.502 17.136C166.209 16.4107 168.15 16.048 170.326 16.048Z"/></svg>